<svg xmlns="http://www.w3.org/2000/svg" viewBox="0 0 396.15 88.29"><defs><style>.cls-1{fill:#8b8c89;}.cls-1,.cls-2,.cls-3,.cls-4,.cls-5{stroke:#fff;stroke-miterlimit:10;}.cls-2{fill:#274c77;}.cls-3{fill:#a3cef1;}.cls-4{fill:#6096ba;}.cls-5,.cls-7{fill:#e7ecef;}.cls-6{fill:#fff;}</style></defs><title>logoIndexarm</title><g id="Capa_2" data-name="Capa 2"><g id="Capa_1-2" data-name="Capa 1"><polygon class="cls-1" points="26.21 5.02 36.04 9.36 52.63 25.19 63.74 4.25 26.21 0.55 26.21 5.02"/><polygon class="cls-2" points="44.97 9.62 50.71 13.45 54.29 8.59 44.97 7.45 44.97 9.62"/><polygon class="cls-1" points="52.63 25.19 63.74 4.25 70.59 9.49 52.63 25.19"/><polygon class="cls-3" points="82.93 20.17 70.59 9.49 52.63 25.19 82.93 20.17"/><polygon class="cls-3" points="89.65 41.45 77.34 21.09 52.63 25.19 52.63 32.53 89.65 41.45"/><polygon class="cls-3" points="52.63 47.85 87.1 66.42 83.8 40.04 52.63 32.53 52.63 47.85"/><polygon class="cls-4" points="68.02 82.44 82.53 63.96 52.63 47.85 68.02 82.44"/><polygon class="cls-4" points="44.55 87.4 65.9 77.68 52.63 47.85 41.91 53.87 44.55 87.4"/><polygon class="cls-4" points="15.61 81.11 44.08 81.44 41.91 53.87 15.61 81.11"/><polygon class="cls-2" points="3.23 58.06 25.57 48.55 41.91 53.87 20.32 76.23 3.23 58.06"/><polygon class="cls-2" points="1.06 28.77 10.29 55.05 25.57 48.55 16.31 28.77 1.06 28.77"/><polygon class="cls-5" points="19.31 6.55 1.06 28.77 16.31 28.77 19.31 6.55"/><polygon class="cls-1" points="4.49 38.54 3.23 58.06 10.29 55.05 4.49 38.54"/><polygon class="cls-1" points="12.52 67.95 15.61 81.11 20.32 76.23 12.52 67.95"/><polygon class="cls-1" points="33.74 81.44 44.55 87.4 44.08 81.44 33.74 81.44"/><polygon class="cls-1" points="55.43 82.44 68.02 82.44 65.9 77.68 55.43 82.44"/><polygon class="cls-1" points="87.1 66.42 76.64 71.46 82.53 63.96 87.1 66.42"/><polygon class="cls-1" points="89.65 41.45 85.5 53.62 83.8 40.04 89.65 41.45"/><polygon class="cls-1" points="82.93 20.17 82.74 30.01 77.34 21.09 82.93 20.17"/><polygon class="cls-1" points="64.54 4.86 76.04 5.74 71.7 10.45 64.54 4.86"/><polygon class="cls-2" points="41.91 25.64 41.91 53.87 52.63 47.85 52.63 32.53 41.91 25.64"/><polygon class="cls-4" points="30.42 22.83 41.91 53.62 41.91 25.64 35.08 15.94 30.42 22.83"/><polygon class="cls-1" points="21.87 21.09 35.08 15.94 30.42 22.83 21.87 21.09"/><path class="cls-6" d="M109.51,63.18l-2.57,8.28h-4.07l10.33-32h3.4l10.16,32h-4.05l-2.52-8.28Zm9.6-3.54-4.22-13.89-4.28,13.89Z"/><path class="cls-6" d="M149.84,47.4a6.9,6.9,0,0,1,1.83.42l-.55,4c-.79-.17-1.54-.3-2.25-.38a19.88,19.88,0,0,0-2.23-.12,9.39,9.39,0,0,0-2.7.36,6.27,6.27,0,0,0-2.11,1.07,6.35,6.35,0,0,0-1.42,1.5,9.5,9.5,0,0,0-1,2V71.46h-4.09V47.69h3.87l.18,3.18,0,.59a11,11,0,0,1,3.48-3.08,9.31,9.31,0,0,1,4.63-1.13A19.36,19.36,0,0,1,149.84,47.4Z"/><path class="cls-6" d="M160.9,49.93a5.34,5.34,0,0,1,1.9-2,5.53,5.53,0,0,1,2.85-.72,6.38,6.38,0,0,1,1.7.21,4.26,4.26,0,0,1,1.33.6,3.59,3.59,0,0,1,.76.75,5,5,0,0,1,.58,1,5.86,5.86,0,0,1,.72-.94,5.54,5.54,0,0,1,.91-.77,5.3,5.3,0,0,1,1.37-.59,6.16,6.16,0,0,1,1.66-.24,6.46,6.46,0,0,1,2.22.36,4.51,4.51,0,0,1,1.67,1.06,5.31,5.31,0,0,1,1.14,2.06,10.11,10.11,0,0,1,.39,3V71.46h-3.86V53.66a4.39,4.39,0,0,0-.18-1.32,2.55,2.55,0,0,0-.5-.94,2.27,2.27,0,0,0-.87-.53,3.66,3.66,0,0,0-1.2-.17,3.61,3.61,0,0,0-1.25.19,2.36,2.36,0,0,0-1.43,1.33,3.5,3.5,0,0,0-.26,1V71.46h-3.87V53.64a4.75,4.75,0,0,0-.17-1.32,2.3,2.3,0,0,0-.51-.94,1.93,1.93,0,0,0-.83-.52A3.59,3.59,0,0,0,164,50.7a4.33,4.33,0,0,0-1.26.16,2.61,2.61,0,0,0-.91.47,2.89,2.89,0,0,0-.5.55,3.44,3.44,0,0,0-.34.66V71.46h-3.87V47.69h3.65Z"/><path class="cls-6" d="M201.17,70.31a11.09,11.09,0,0,1-.21-1.44A10.57,10.57,0,0,1,199.58,70a9.27,9.27,0,0,1-1.66,1,10.16,10.16,0,0,1-1.95.66,9.7,9.7,0,0,1-2.2.24,9.88,9.88,0,0,1-3.41-.55,7.89,7.89,0,0,1-2.59-1.49,6.54,6.54,0,0,1-1.66-2.21,6.82,6.82,0,0,1-.58-2.78,7.2,7.2,0,0,1,.78-3.43A6.93,6.93,0,0,1,188.52,59,10.47,10.47,0,0,1,192,57.53a19.38,19.38,0,0,1,4.49-.48h4.44V55.18a4.67,4.67,0,0,0-.39-1.94,4.26,4.26,0,0,0-1.13-1.47,5.34,5.34,0,0,0-1.76-.92,7.78,7.78,0,0,0-2.34-.33,6.93,6.93,0,0,0-2.17.31,5.07,5.07,0,0,0-1.61.81,3.79,3.79,0,0,0-1,1.2,3.07,3.07,0,0,0-.36,1.44H186a5.52,5.52,0,0,1,.67-2.55,7.09,7.09,0,0,1,1.87-2.26,9.84,9.84,0,0,1,3-1.61,11.91,11.91,0,0,1,4-.61,13.61,13.61,0,0,1,3.75.49,8.74,8.74,0,0,1,3,1.48,7.18,7.18,0,0,1,2,2.51,7.94,7.94,0,0,1,.73,3.49v11a15.08,15.08,0,0,0,.22,2.52,11,11,0,0,0,.61,2.32v.35h-4.24A4.3,4.3,0,0,1,201.17,70.31Zm-4.59-2.26a8,8,0,0,0,1.89-.81,7,7,0,0,0,1.45-1.15,5.46,5.46,0,0,0,1-1.35V59.92h-3.78a16.05,16.05,0,0,0-3.68.37,6,6,0,0,0-2.49,1.11,3.42,3.42,0,0,0-1,1.25,3.77,3.77,0,0,0-.34,1.65,4.52,4.52,0,0,0,.29,1.62,3.4,3.4,0,0,0,.89,1.28,4.2,4.2,0,0,0,1.5.85,6.3,6.3,0,0,0,2.09.31A7.47,7.47,0,0,0,196.58,68.05Z"/><path class="cls-6" d="M212.83,54.49a11.55,11.55,0,0,1,1.93-3.84,8.73,8.73,0,0,1,3-2.5,8.56,8.56,0,0,1,3.94-.9,9,9,0,0,1,3.72.71A7.87,7.87,0,0,1,228.16,50V37.71h4.06V71.46h-3.73l-.18-2.5a7.81,7.81,0,0,1-2.83,2.19,9.21,9.21,0,0,1-3.85.75,8.31,8.31,0,0,1-3.9-.92,9.06,9.06,0,0,1-3-2.55,12.46,12.46,0,0,1-1.92-3.84,16.13,16.13,0,0,1-.68-4.75v-.46A17.1,17.1,0,0,1,212.83,54.49Zm3.77,8.64a8.43,8.43,0,0,0,1.17,2.75,5.71,5.71,0,0,0,2,1.88,5.79,5.79,0,0,0,2.9.69,5.89,5.89,0,0,0,3.39-.92A6.65,6.65,0,0,0,228.16,65V54A7,7,0,0,0,226,51.63a5.74,5.74,0,0,0-3.34-.93,5.51,5.51,0,0,0-4.92,2.59,8.6,8.6,0,0,0-1.17,2.78,14.23,14.23,0,0,0-.37,3.31v.46A14.06,14.06,0,0,0,216.6,63.13Z"/><path class="cls-6" d="M252.72,47.69V67.94h7.76v3.52H240.57V67.94h8.09V51.22h-8.09V47.69Zm-4.42-7.23a2,2,0,0,1,.51-.79,2.17,2.17,0,0,1,.74-.46,3.21,3.21,0,0,1,1-.16,3.1,3.1,0,0,1,1,.16,2.22,2.22,0,0,1,.73.46,1.85,1.85,0,0,1,.52.76,2.8,2.8,0,0,1,.18,1,2.32,2.32,0,0,1-.62,1.64,2.85,2.85,0,0,1-3.65,0,2.32,2.32,0,0,1-.61-1.64A2.86,2.86,0,0,1,248.3,40.46Z"/><path class="cls-6" d="M279.73,37.71V67.94h7.76v3.52H267.58V67.94h8.08V41.25h-8.08V37.71Z"/><path class="cls-6" d="M306.73,37.71V67.94h7.76v3.52H294.58V67.94h8.09V41.25h-8.09V37.71Z"/><path class="cls-6" d="M320.55,54.57a11.31,11.31,0,0,1,2.16-3.83,9.87,9.87,0,0,1,3.38-2.56,11.45,11.45,0,0,1,9,0,10.12,10.12,0,0,1,3.42,2.56,11.6,11.6,0,0,1,2.13,3.83,14.83,14.83,0,0,1,.75,4.78v.49a14.62,14.62,0,0,1-.75,4.76,11.7,11.7,0,0,1-2.13,3.83A10.05,10.05,0,0,1,335.14,71a10.68,10.68,0,0,1-4.5.92A10.83,10.83,0,0,1,326.1,71a9.79,9.79,0,0,1-3.39-2.55,11.41,11.41,0,0,1-2.16-3.83,14.89,14.89,0,0,1-.74-4.76v-.49A15.1,15.1,0,0,1,320.55,54.57Zm3.74,8.62a8.64,8.64,0,0,0,1.27,2.8,6.23,6.23,0,0,0,2.11,1.91,6,6,0,0,0,3,.7,5.91,5.91,0,0,0,2.93-.7A6.45,6.45,0,0,0,335.69,66a8.84,8.84,0,0,0,1.26-2.8,13.54,13.54,0,0,0,.41-3.35v-.49a12.67,12.67,0,0,0-.43-3.33,8.84,8.84,0,0,0-1.26-2.8,6.6,6.6,0,0,0-2.12-1.92,6.48,6.48,0,0,0-5.9,0,6.5,6.5,0,0,0-2.09,1.92,8.64,8.64,0,0,0-1.27,2.8,13.1,13.1,0,0,0-.42,3.33v.49A13.09,13.09,0,0,0,324.29,63.19Z"/><path class="cls-6" d="M367.8,39.47V61.68A10.46,10.46,0,0,1,367,65.8,9.93,9.93,0,0,1,364.68,69a10.12,10.12,0,0,1-3.38,2.11,11.58,11.58,0,0,1-4.21.75,13.3,13.3,0,0,1-4.25-.65,9.39,9.39,0,0,1-3.3-1.88,8.61,8.61,0,0,1-2.19-3.05,11.37,11.37,0,0,1-.89-4.2h5.32a7.16,7.16,0,0,0,.35,2.21,5,5,0,0,0,.92,1.66,4.33,4.33,0,0,0,1.69,1.19,6.54,6.54,0,0,0,2.35.39,5.16,5.16,0,0,0,2.22-.46,5.32,5.32,0,0,0,1.7-1.25A6,6,0,0,0,362.07,64a6.78,6.78,0,0,0,.39-2.3V39.47Z"/><path class="cls-6" d="M389.8,63.92a2.93,2.93,0,0,0-.91-.92,10,10,0,0,0-1.78-.75,25,25,0,0,0-2.75-.66,26,26,0,0,1-3.77-1,12.36,12.36,0,0,1-2.93-1.49,6.57,6.57,0,0,1-1.89-2,5.13,5.13,0,0,1-.68-2.66,5.85,5.85,0,0,1,.69-2.76,7.06,7.06,0,0,1,2-2.29,9.75,9.75,0,0,1,3.09-1.56,13.39,13.39,0,0,1,4-.57,14.39,14.39,0,0,1,4.26.58,10.25,10.25,0,0,1,3.21,1.59,7.16,7.16,0,0,1,2,2.4,6.47,6.47,0,0,1,.7,3h-5.25a3.07,3.07,0,0,0-.27-1.26,3.61,3.61,0,0,0-.8-1.09,4.61,4.61,0,0,0-1.59-.91,6.72,6.72,0,0,0-2.26-.34,8.06,8.06,0,0,0-2.08.25,4.22,4.22,0,0,0-1.46.7,2.58,2.58,0,0,0-.85.93,2.29,2.29,0,0,0-.29,1.13,2.51,2.51,0,0,0,.24,1.11,2.16,2.16,0,0,0,.86.87,6.29,6.29,0,0,0,1.59.72,19.25,19.25,0,0,0,2.58.6,31.86,31.86,0,0,1,4,1,12.76,12.76,0,0,1,3.08,1.41,6.44,6.44,0,0,1,2,2.07,5.38,5.38,0,0,1,.71,2.81,5.87,5.87,0,0,1-.74,2.9,6.76,6.76,0,0,1-2.08,2.26,10.57,10.57,0,0,1-3.25,1.47,15.25,15.25,0,0,1-4.19.53,14.11,14.11,0,0,1-4.56-.68,10.16,10.16,0,0,1-3.33-1.8A7.51,7.51,0,0,1,375,66.91a6.48,6.48,0,0,1-.7-2.9h5.1a3.56,3.56,0,0,0,.58,1.86,4,4,0,0,0,1.31,1.22,5.43,5.43,0,0,0,1.75.69,9.64,9.64,0,0,0,2,.21,8.94,8.94,0,0,0,2.39-.29,4.5,4.5,0,0,0,1.63-.77,2.76,2.76,0,0,0,.76-.86,2.21,2.21,0,0,0,.26-1A2.25,2.25,0,0,0,389.8,63.92Z"/><rect class="cls-7" x="340.15" y="7.19" width="56" height="21.96" rx="3.02"/><path d="M348.39,14.66h.82l3.35,8,.23.59.22-.58,3.35-8h.82l-4.06,9.51h-.67Z"/><path d="M367.38,21a5.46,5.46,0,0,1-.68,1.7,3.78,3.78,0,0,1-1.23,1.19,3.39,3.39,0,0,1-1.82.46,3.74,3.74,0,0,1-1.42-.25,3,3,0,0,1-1.08-.71A4.66,4.66,0,0,1,360,21.43a8.44,8.44,0,0,1-.34-2.4V16.51a8.36,8.36,0,0,1,.23-2,5.42,5.42,0,0,1,.71-1.72,3.65,3.65,0,0,1,1.23-1.18,3.43,3.43,0,0,1,1.8-.44,3.89,3.89,0,0,1,1.44.26,3.19,3.19,0,0,1,1.08.72,4.32,4.32,0,0,1,1.1,1.93,8.52,8.52,0,0,1,.35,2.41V19A8.54,8.54,0,0,1,367.38,21Zm-.77-6.44a5.12,5.12,0,0,0-.38-1.06,2.75,2.75,0,0,0-.61-.84,2.65,2.65,0,0,0-.85-.57,2.9,2.9,0,0,0-1.14-.21,2.62,2.62,0,0,0-1.46.37,3.05,3.05,0,0,0-1,1,4,4,0,0,0-.58,1.46,8.54,8.54,0,0,0-.18,1.73v2.28a7.57,7.57,0,0,0,0,.81q0,.4.12.81Zm.23,2.34c0-.23,0-.48,0-.76s-.06-.55-.1-.81l-6,5.76a4.69,4.69,0,0,0,.4,1,3,3,0,0,0,.61.82,2.63,2.63,0,0,0,.84.54,3.14,3.14,0,0,0,1.11.19,2.73,2.73,0,0,0,1.49-.39,2.87,2.87,0,0,0,1-1,4.45,4.45,0,0,0,.56-1.47,8.55,8.55,0,0,0,.17-1.68Z"/><path d="M374.18,23.06a.66.66,0,0,1,.51-.21.69.69,0,0,1,.51.21.69.69,0,0,1,.2.5.66.66,0,0,1-.2.49.73.73,0,0,1-.51.2.68.68,0,0,1-.71-.69A.69.69,0,0,1,374.18,23.06Z"/><path d="M385.43,24.17V12.35L381.79,14v-.76L386,11.37h.16v12.8Z"/></g></g></svg>