<svg xmlns="http://www.w3.org/2000/svg" viewBox="0 0 90.7 88.29"><defs><style>.cls-1{fill:#8b8c89;}.cls-1,.cls-2,.cls-3,.cls-4,.cls-5{stroke:#fff;stroke-miterlimit:10;}.cls-2{fill:#274c77;}.cls-3{fill:#a3cef1;}.cls-4{fill:#6096ba;}.cls-5{fill:#e7ecef;}</style></defs><title>locoIconoarm</title><g id="Capa_2" data-name="Capa 2"><g id="Capa_1-2" data-name="Capa 1"><polygon class="cls-1" points="26.21 5.02 36.04 9.36 52.63 25.19 63.74 4.25 26.21 0.55 26.21 5.02"/><polygon class="cls-2" points="44.97 9.62 50.71 13.45 54.29 8.59 44.97 7.45 44.97 9.62"/><polygon class="cls-1" points="52.63 25.19 63.74 4.25 70.59 9.49 52.63 25.19"/><polygon class="cls-3" points="82.93 20.17 70.59 9.49 52.63 25.19 82.93 20.17"/><polygon class="cls-3" points="89.65 41.45 77.34 21.09 52.63 25.19 52.63 32.53 89.65 41.45"/><polygon class="cls-3" points="52.63 47.85 87.1 66.42 83.8 40.04 52.63 32.53 52.63 47.85"/><polygon class="cls-4" points="68.02 82.44 82.53 63.96 52.63 47.85 68.02 82.44"/><polygon class="cls-4" points="44.55 87.4 65.9 77.68 52.63 47.85 41.91 53.87 44.55 87.4"/><polygon class="cls-4" points="15.61 81.11 44.08 81.44 41.91 53.87 15.61 81.11"/><polygon class="cls-2" points="3.23 58.06 25.57 48.55 41.91 53.87 20.32 76.23 3.23 58.06"/><polygon class="cls-2" points="1.06 28.77 10.29 55.05 25.57 48.55 16.31 28.77 1.06 28.77"/><polygon class="cls-5" points="19.31 6.55 1.06 28.77 16.31 28.77 19.31 6.55"/><polygon class="cls-1" points="4.49 38.54 3.23 58.06 10.29 55.05 4.49 38.54"/><polygon class="cls-1" points="12.52 67.95 15.61 81.11 20.32 76.23 12.52 67.95"/><polygon class="cls-1" points="33.74 81.44 44.55 87.4 44.08 81.44 33.74 81.44"/><polygon class="cls-1" points="55.43 82.44 68.02 82.44 65.9 77.68 55.43 82.44"/><polygon class="cls-1" points="87.1 66.42 76.64 71.46 82.53 63.96 87.1 66.42"/><polygon class="cls-1" points="89.65 41.45 85.5 53.62 83.8 40.04 89.65 41.45"/><polygon class="cls-1" points="82.93 20.17 82.74 30.01 77.34 21.09 82.93 20.17"/><polygon class="cls-1" points="64.54 4.86 76.04 5.74 71.7 10.45 64.54 4.86"/><polygon class="cls-2" points="41.91 25.64 41.91 53.87 52.63 47.85 52.63 32.53 41.91 25.64"/><polygon class="cls-4" points="30.42 22.83 41.91 53.62 41.91 25.64 35.08 15.94 30.42 22.83"/><polygon class="cls-1" points="21.87 21.09 35.08 15.94 30.42 22.83 21.87 21.09"/></g></g></svg>